{"title":"Petite Teen Nelly With Shapely Boobs Gets Sodomized Young Anal T","uid":10751275,"size":332533574,"categoryP":"porn","categoryS":"other","magnet":"?xt=urn:btih:4e8a030378d2eaeba152676a10003abe16e5c096&amp;dn=Petite+Teen+Nelly+With+Shapely+Boobs+Gets+Sodomized+Young+Anal+T&amp;tr=udp%3A%2F%2Ftracker.openbittorrent.com%3A80&amp;tr=udp%3A%2F%2Fopen.demonii.com%3A1337&amp;tr=udp%3A%2F%2Ftracker.coppersurfer.tk%3A6969&amp;tr=udp%3A%2F%2Fexodus.desync.com%3A6969","seeders":1,"leechers":1,"uploader":"vpsr","files":1,"time":1407874182,"description":"Petite Teen Nelly With Shapely Boobs Gets Sodomized Young Anal Tryouts[VPSR] \n\n &lt;a href=&quot;\nhttp://s25.postimg.org/flyov2aan/petti.jpg&quot; rel=&quot;nofollow&quot; target=&quot;_NEW&quot;&gt;\nhttp://s25.postimg.org/flyov2aan/petti.jpg&lt;/a&gt;\n\n &lt;a href=&quot;\nhttp://s25.postimg.org/rp40imlcv/Petite_Teen_Nelly_With_Shapely_Boobs_Gets_Sodomi.jpg&quot; rel=&quot;nofollow&quot; target=&quot;_NEW&quot;&gt;\nhttp://s25.postimg.org/rp40imlcv/Petite_Teen_Nelly_With_Shapely_Boobs_Gets_Sodomi.jpg&lt;/a&gt;\n\n\nFILE INFO\n\n\nGeneral\nComplete name                            : Petite Teen Nelly With Shapely Boobs Gets Sodomized  Young Anal Tryouts[VPSR].mp4\nFormat                                   : MPEG-4\nFormat profile                           : Base Media\nCodec ID                                 : isom\nFile size                                : 317 MiB\nDuration                                 : 10mn 39s\nOverall bit rate mode                    : Variable\nOverall bit rate                         : 4 162 Kbps\nMovie name                               : GINA\nWriting application                      : Lavf55.12.100\nXtra                                     : WM/SubTitle\n\nVideo\nID                                       : 1\nFormat                                   : MPEG-4 Visual\nFormat settings, BVOP                    : No\nFormat settings, QPel                    : No\nFormat settings, GMC                     : No warppoints\nFormat settings, Matrix                  : Default (H.263)\nCodec ID                                 : 20\nDuration                                 : 10mn 39s\nBit rate mode                            : Constant\nBit rate                                 : 4 003 Kbps\nWidth                                    : 1 280 pixels\nHeight                                   : 720 pixels\nDisplay aspect ratio                     : 16:9\nFrame rate mode                          : Constant\nFrame rate                               : 29.970 fps\nColor space                              : YUV\nChroma subsampling                       : 4:2:0\nBit depth                                : 8 bits\nScan type                                : Progressive\nCompression mode                         : Lossy\nBits/(Pixel*Frame)                       : 0.145\nStream size                              : 305 MiB (96%)\nWriting library                          : Lavc55.18.102\n\nAudio\nID                                       : 2\nFormat                                   : AAC\nFormat/Info                              : Advanced Audio Codec\nFormat profile                           : LC\nCodec ID                                 : 40\nDuration                                 : 10mn 39s\nBit rate mode                            : Variable\nBit rate                                 : 152 Kbps\nMaximum bit rate                         : 320 Kbps\nChannel(s)                               : 2 channels\nChannel positions                        : Front: L R\nSampling rate                            : 44.1 KHz\nCompression mode                         : Lossy\nStream size                              : 11.6 MiB (4%)\n\n","torrent":{"xt":"urn:btih:4e8a030378d2eaeba152676a10003abe16e5c096","amp;dn":"Petite+Teen+Nelly+With+Shapely+Boobs+Gets+Sodomized+Young+Anal+T","amp;tr":["udp%3A%2F%2Ftracker.openbittorrent.com%3A80","udp%3A%2F%2Fopen.demonii.com%3A1337","udp%3A%2F%2Ftracker.coppersurfer.tk%3A6969","udp%3A%2F%2Fexodus.desync.com%3A6969"],"infoHash":"4e8a030378d2eaeba152676a10003abe16e5c096","infoHashBuffer":{"type":"Buffer","data":[78,138,3,3,120,210,234,235,161,82,103,106,16,0,58,190,22,229,192,150]},"announce":[],"urlList":[]}}